<?xml version="1.0" encoding="UTF-8"?>
<svg version="1.1" viewBox="0 0 455.74 516.54" xmlns="http://www.w3.org/2000/svg">
 <defs>
  <pattern id="r" width="30.066020" height="5.1805778" patternUnits="userSpaceOnUse">
   <path d="m7.597 0.061c-2.518-0.248-4.941 0.241-7.607 1.727v1.273c2.783-1.63 5.183-2.009 7.482-1.781 2.298 0.228 4.497 1.081 6.781 1.938 4.567 1.713 9.551 3.458 15.813-0.157l-4e-3 -1.273c-6.44 3.709-10.816 1.982-15.371 0.273-2.278-0.854-4.576-1.75-7.094-2z" fill="#fff"/>
  </pattern>
  <linearGradient id="ad" x1="341.5" x2="426.5" y1="408.86" y2="408.86" gradientUnits="userSpaceOnUse">
   <stop stop-color="#ccc" offset="0"/>
   <stop stop-color="#ccc" stop-opacity="0" offset="1"/>
  </linearGradient>
  <linearGradient id="ae" x1="277.06" x2="489.94" y1="500.86" y2="500.86" gradientUnits="userSpaceOnUse">
   <stop stop-color="#1a1a1a" offset="0"/>
   <stop stop-color="#1a1a1a" stop-opacity="0" offset="1"/>
  </linearGradient>
  <filter id="t" x="-.5" y="-.5" width="2" height="2" color-interpolation-filters="sRGB">
   <feColorMatrix type="hueRotate" values="0"/>
   <feColorMatrix type="saturate" values="1"/>
   <feColorMatrix result="fbSourceGraphic" values="2 -1 0 0 0 0 2 -1 0 0 -1 0 2 0 0 0 0 0 1 0 "/>
   <feColorMatrix in="fbSourceGraphic" result="fbSourceGraphicAlpha" values="0 0 0 -1 0 0 0 0 -1 0 0 0 0 -1 0 0 0 0 1 0"/>
   <feGaussianBlur in="fbSourceGraphic" result="result1" stdDeviation="1"/>
   <feGaussianBlur in="result1" result="result6" stdDeviation="8"/>
   <feComposite in="result6" in2="result1" operator="atop" result="result8"/>
   <feComposite in="result6" in2="result8" operator="xor" result="fbSourceGraphic"/>
   <feColorMatrix in="fbSourceGraphic" result="fbSourceGraphicAlpha" values="0 0 0 -1 0 0 0 0 -1 0 0 0 0 -1 0 0 0 0 2 0 "/>
   <feGaussianBlur in="fbSourceGraphicAlpha" result="result0" stdDeviation="2.5"/>
   <feSpecularLighting lighting-color="#ffffff" in="result0" result="result1" specularExponent="35" surfaceScale="4">
    <fePointLight x="-5000" y="-10000" z="20000"/>
   </feSpecularLighting>
   <feComposite in="result1" in2="fbSourceGraphicAlpha" operator="in" result="result2"/>
   <feComposite in="fbSourceGraphic" in2="result2" k2="1" k3="1" operator="arithmetic" result="result4"/>
   <feComposite in2="result4" operator="atop" result="result91"/>
   <feBlend in2="result91" mode="multiply"/>
  </filter>
  <filter id="u" x="-.25" y="-.25" width="1.5" height="1.5" color-interpolation-filters="sRGB">
   <feGaussianBlur result="result1" stdDeviation="1"/>
   <feComposite in="result1" in2="result1" operator="in" result="result4"/>
   <feGaussianBlur in="result4" result="result6" stdDeviation="7"/>
   <feComposite in="result6" in2="result4" result="result8"/>
   <feComposite in="result6" in2="result8" operator="in" result="fbSourceGraphic"/>
   <feSpecularLighting lighting-color="#ffffff" in="fbSourceGraphic" result="result1" specularConstant="2" specularExponent="45" surfaceScale="2.5">
    <fePointLight x="-5000" y="-10000" z="20000"/>
   </feSpecularLighting>
   <feComposite in="result1" in2="fbSourceGraphic" operator="in" result="result2"/>
   <feComposite in="fbSourceGraphic" in2="result2" k2="1.2" k3="1.5" operator="arithmetic" result="result4"/>
   <feComposite in2="result4" result="result9"/>
   <feBlend in2="result9" mode="screen"/>
  </filter>
  <filter id="v" x="-.25" y="-.25" width="1.5" height="1.5" color-interpolation-filters="sRGB">
   <feGaussianBlur result="result1" stdDeviation="1"/>
   <feComposite in="result1" in2="result1" operator="in" result="result4"/>
   <feGaussianBlur in="result4" result="result6" stdDeviation="7"/>
   <feComposite in="result6" in2="result4" result="result8"/>
   <feComposite in="result6" in2="result8" operator="in" result="fbSourceGraphic"/>
   <feSpecularLighting lighting-color="#ffffff" in="fbSourceGraphic" result="result1" specularConstant="2" specularExponent="45" surfaceScale="2.5">
    <fePointLight x="-5000" y="-10000" z="20000"/>
   </feSpecularLighting>
   <feComposite in="result1" in2="fbSourceGraphic" operator="in" result="result2"/>
   <feComposite in="fbSourceGraphic" in2="result2" k2="1.2" k3="1.5" operator="arithmetic" result="result4"/>
   <feComposite in2="result4" result="result9"/>
   <feBlend in2="result9" mode="screen"/>
  </filter>
  <filter id="w" x="-.25" y="-.25" width="1.5" height="1.5" color-interpolation-filters="sRGB">
   <feGaussianBlur result="result1" stdDeviation="1"/>
   <feComposite in="result1" in2="result1" operator="in" result="result4"/>
   <feGaussianBlur in="result4" result="result6" stdDeviation="7"/>
   <feComposite in="result6" in2="result4" result="result8"/>
   <feComposite in="result6" in2="result8" operator="in" result="fbSourceGraphic"/>
   <feSpecularLighting lighting-color="#ffffff" in="fbSourceGraphic" result="result1" specularConstant="2" specularExponent="45" surfaceScale="2.5">
    <fePointLight x="-5000" y="-10000" z="20000"/>
   </feSpecularLighting>
   <feComposite in="result1" in2="fbSourceGraphic" operator="in" result="result2"/>
   <feComposite in="fbSourceGraphic" in2="result2" k2="1.2" k3="1.5" operator="arithmetic" result="result4"/>
   <feComposite in2="result4" result="result9"/>
   <feBlend in2="result9" mode="screen"/>
  </filter>
  <filter id="x" x="0" y="0" width="1" height="1" color-interpolation-filters="sRGB">
   <feGaussianBlur in="SourceAlpha" result="result0" stdDeviation="2.3"/>
   <feMorphology in="SourceAlpha" radius="6.6" result="result1"/>
   <feGaussianBlur in="result1" stdDeviation="8.9"/>
   <feColorMatrix result="result91" values="1 0 0 0 0 0 1 0 0 0 0 0 1 0 0 0 0 0 0.3 0"/>
   <feComposite in="result0" in2="result91" operator="out" result="result2"/>
   <feGaussianBlur result="result4" stdDeviation="1.7"/>
   <feDiffuseLighting result="result92" surfaceScale="10">
    <feDistantLight azimuth="225" elevation="45"/>
   </feDiffuseLighting>
   <feBlend in2="SourceGraphic" mode="multiply" result="result93"/>
   <feComposite in2="SourceAlpha" operator="in" result="result3"/>
   <feSpecularLighting in="result4" result="result94" specularExponent="17.89999962" surfaceScale="5">
    <feDistantLight azimuth="225" elevation="45"/>
   </feSpecularLighting>
   <feComposite in2="result3" operator="atop"/>
  </filter>
  <filter id="y" x="0" y="0" width="1" height="1" color-interpolation-filters="sRGB">
   <feGaussianBlur in="SourceAlpha" result="result0" stdDeviation="2.3"/>
   <feMorphology in="SourceAlpha" radius="6.6" result="result1"/>
   <feGaussianBlur in="result1" stdDeviation="8.9"/>
   <feColorMatrix result="result91" values="1 0 0 0 0 0 1 0 0 0 0 0 1 0 0 0 0 0 0.3 0"/>
   <feComposite in="result0" in2="result91" operator="out" result="result2"/>
   <feGaussianBlur result="result4" stdDeviation="1.7"/>
   <feDiffuseLighting result="result92" surfaceScale="10">
    <feDistantLight azimuth="225" elevation="45"/>
   </feDiffuseLighting>
   <feBlend in2="SourceGraphic" mode="multiply" result="result93"/>
   <feComposite in2="SourceAlpha" operator="in" result="result3"/>
   <feSpecularLighting in="result4" result="result94" specularExponent="17.89999962" surfaceScale="5">
    <feDistantLight azimuth="225" elevation="45"/>
   </feSpecularLighting>
   <feComposite in2="result3" operator="atop"/>
  </filter>
  <filter id="z" x="-.25" y="-.25" width="1.5" height="1.5" color-interpolation-filters="sRGB">
   <feGaussianBlur result="result8" stdDeviation="3.5"/>
   <feComposite in="result8" in2="result8" operator="xor" result="result6"/>
   <feDisplacementMap in="result8" in2="result6" result="result4" scale="75"/>
   <feComposite in="result8" in2="result4" k1="3" operator="arithmetic" result="result2"/>
   <feComposite in="result2" in2="result2" operator="in" result="fbSourceGraphic"/>
  </filter>
  <filter id="aa" x="-.25" y="-.25" width="1.5" height="1.5" color-interpolation-filters="sRGB">
   <feGaussianBlur result="result8" stdDeviation="3.5"/>
   <feComposite in="result8" in2="result8" operator="xor" result="result6"/>
   <feDisplacementMap in="result8" in2="result6" result="result4" scale="75"/>
   <feComposite in="result8" in2="result4" k1="3" operator="arithmetic" result="result2"/>
   <feComposite in="result2" in2="result2" operator="in" result="fbSourceGraphic"/>
  </filter>
  <linearGradient id="af" x1="251.5" x2="514.5" y1="402.36" y2="402.36" gradientUnits="userSpaceOnUse">
   <stop offset="0"/>
   <stop stop-opacity="0" offset="1"/>
  </linearGradient>
  <linearGradient id="ag" x1="350" x2="421" y1="669.86" y2="669.86" gradientUnits="userSpaceOnUse">
   <stop stop-color="#4d4d4d" offset="0"/>
   <stop stop-color="#4d4d4d" stop-opacity="0" offset="1"/>
  </linearGradient>
  <filter id="ab" x="-.25" y="-.25" width="1.5" height="1.5" color-interpolation-filters="sRGB">
   <feGaussianBlur result="result8" stdDeviation="7"/>
   <feComposite in="result8" in2="result8" operator="xor" result="result6"/>
   <feDisplacementMap in="SourceGraphic" in2="result6" result="result4" scale="100"/>
   <feComposite in="SourceGraphic" in2="result4" k1="1" operator="arithmetic" result="result2"/>
   <feComposite in="result8" in2="result2" operator="in" result="fbSourceGraphic"/>
  </filter>
  <linearGradient id="ah" x1="261" x2="511" y1="306.86" y2="306.86" gradientUnits="userSpaceOnUse">
   <stop stop-color="#1a1a1a" offset="0"/>
   <stop stop-color="#1a1a1a" stop-opacity="0" offset="1"/>
  </linearGradient>
  <filter id="ac" x="-.25" y="-.25" width="1.5" height="1.5" color-interpolation-filters="sRGB">
   <feGaussianBlur result="result8" stdDeviation="3.5"/>
   <feComposite in="result8" in2="result8" operator="xor" result="result6"/>
   <feDisplacementMap in="result8" in2="result6" result="result4" scale="75"/>
   <feComposite in="result8" in2="result4" k1="3" operator="arithmetic" result="result2"/>
   <feComposite in="result2" in2="result2" operator="in" result="fbSourceGraphic"/>
  </filter>
  <filter id="s" color-interpolation-filters="sRGB">
   <feGaussianBlur stdDeviation="5.3954687"/>
  </filter>
 </defs>
 <g transform="translate(-165.26 -243.32)">
  <rect x="360" y="695.36" width="48" height="15" ry="7" fill="#1a1a1a" stroke="#000"/>
  <path d="m350 625.36 6 89h9l1-67h37l1 68h9l7-92z" fill="#ccc" stroke="#000" stroke-width="1px"/>
  <path d="m350.5 625.86 6 89h9l1-67h37l1 68h9l7-92z" fill="url(#ag)" filter="url(#ab)" stroke="#000" stroke-width="1px"/>
  <rect transform="rotate(-55.213)" x="-95.829" y="628.99" width="47.874" height="33.941" rx="9.6472" ry="11.364" fill="#999" stroke="#000" stroke-width=".82697"/>
  <rect transform="rotate(137.71)" x="46.16" y="-514.7" width="47.874" height="33.941" rx="9.6472" ry="11.364" fill="#999" stroke="#000" stroke-width=".82697"/>
  <rect x="277.5" y="376.36" width="212" height="249.5" rx="12.951" ry="22" fill="#808080" stroke="#000" stroke-width=".889"/>
  <rect x="360" y="349.91" width="49.5" height="27.484" rx="1.9508" ry="3.5149" fill="#1a1a1a" stroke="#000" stroke-width="1.1177"/>
  <rect transform="rotate(252.49)" x="-616.17" y="363.01" width="38.511" height="32.484" rx="7.7605" ry="10.876" fill="#999" stroke="#000" stroke-width=".72561"/>
  <rect transform="rotate(-55.213)" x="-98.656" y="662.16" width="54.572" height="33.359" rx="10.997" ry="11.169" fill="#999" stroke="#000" stroke-width=".87532"/>
  <rect transform="rotate(252.49)" x="-610.45" y="396.27" width="27.05" height="32.048" rx="5.4509" ry="10.73" fill="#999" stroke="#000" stroke-width=".60403"/>
  <rect transform="rotate(137.71)" x="43.334" y="-481.53" width="54.572" height="33.359" rx="10.997" ry="11.169" fill="#999" stroke="#000" stroke-width=".87532"/>
  <rect transform="matrix(1 0 0 .9894 0 3.9873)" x="277.5" y="376.11" width="212" height="249.5" rx="12.951" ry="22" fill="url(#ae)" filter="url(#aa)" stroke="#000" stroke-width=".889"/>
  <rect transform="rotate(137.71)" x="51.717" y="-447.69" width="38.511" height="32.484" rx="7.7605" ry="10.876" fill="#999" stroke="#000" stroke-width=".72561"/>
  <path d="m280 376.36 201-1 37.95 50.707-93.568 3.3813 1.6187-26.088h-85l1.591 26.088-100.08-4.0884z" fill="#4d4d4d" stroke="#000" stroke-width="1px"/>
  <path d="m342.53 404.27 84.763-0.91161-9.2929 12-66.204-1.8562z" fill="url(#ad)" stroke="#000" stroke-width="1px"/>
  <rect x="352" y="413.36" width="67" height="155" fill="#ccc" stroke="#000"/>
  <path d="m342 404.36 10 163-0.0607-153.68z" fill="none" stroke="#000" stroke-width="1px"/>
  <path d="m426.85 404.31-8.23 9.17-0.62 154.88z" fill="#999" stroke="#000" stroke-width="1px"/>
  <path transform="translate(4,26.5)" d="m369 439.36c0 3.866-3.134 7-7 7s-7-3.134-7-7 3.134-7 7-7 7 3.134 7 7z" fill="#f00" filter="url(#u)" stroke="#000" stroke-dasharray="8, 1"/>
  <path transform="translate(4,45.5)" d="m369 439.36c0 3.866-3.134 7-7 7s-7-3.134-7-7 3.134-7 7-7 7 3.134 7 7z" fill="#ff0" filter="url(#v)" stroke="#000" stroke-dasharray="8, 1"/>
  <path transform="translate(4,64.5)" d="m369 439.36c0 3.866-3.134 7-7 7s-7-3.134-7-7 3.134-7 7-7 7 3.134 7 7z" fill="#0f0" filter="url(#w)" stroke="#000" stroke-dasharray="8, 1"/>
  <rect x="354.5" y="418.38" width="61" height="33" rx="3.5" ry="5" fill="url(#r)" filter="url(#t)" stroke="#000"/>
  <path transform="translate(11,9)" d="m393 462.36c0 4.4183-3.5817 8-8 8s-8-3.5817-8-8 3.5817-8 8-8 8 3.5817 8 8z" filter="url(#x)" stroke="#000"/>
  <path transform="translate(11,30)" d="m393 462.36c0 4.4183-3.5817 8-8 8s-8-3.5817-8-8 3.5817-8 8-8 8 3.5817 8 8z" filter="url(#y)" stroke="#000"/>
  <g transform="matrix(.057764 .15376 -.15376 .057764 656.44 300.22)" fill-rule="evenodd" stroke-linecap="round" stroke-linejoin="round">
   <path d="m230 483.79c-56.465 0-105.83 30.336-132.72 75.594l84.469 1.375 42.188 75.875-44.594 74.469-86-1.4062c25.803 49.139 77.301 82.656 136.66 82.656 63.639 0 118.26-38.526 141.84-93.531 7.2131 1.3629 14.853 2.125 22.75 2.125h456.53c45.279 0 81.719-24.012 81.719-53.812v-20.969c0-29.8-36.44-53.812-81.719-53.812h-456.53c-8.3182 0-16.355 0.80587-23.906 2.3125-24.186-53.586-78.077-90.875-140.69-90.875z" fill="#e6e6e6" stroke="#080a15" stroke-width="3"/>
   <path d="m228.57 480.94c-57.633 0-107.89 31.588-134.38 78.406l86.125 1.4062 42.188 75.875-44.594 74.469-84.469-1.375c26.281 47.561 76.939 79.781 135.13 79.781 63.639 0 118.26-38.526 141.84-93.531 7.2131 1.3629 14.853 2.125 22.75 2.125h456.53c45.279 0 81.719-24.012 81.719-53.812v-20.969c0-29.8-36.44-53.812-81.719-53.812h-456.53c-8.3182 0-16.355 0.80587-23.906 2.3125-24.186-53.586-78.077-90.875-140.69-90.875z" fill="#ccc" stroke="#000" stroke-width="3"/>
   <path transform="matrix(.98597 0 0 1 13.513 2)" d="m226.9 482.36c-56.465 0-105.83 30.336-132.72 75.594l7.1875 0.125c28.057-38.44 73.451-63.438 124.69-63.438 62.611 0 116.5 37.289 140.69 90.875 7.5511-1.5066 15.588-2.3125 23.906-2.3125h456.53c45.279 0 81.719 24.012 81.719 53.812v16.469c0.55361-2.5384 0.84375-5.1392 0.84375-7.7812v-20.969c0-29.8-36.44-53.812-81.719-53.812h-456.53c-8.3182 0-16.355 0.80587-23.906 2.3125-24.186-53.586-78.077-90.875-140.69-90.875zm-10.031 159.5-40.625 67.812-86-1.4062c2.2362 4.2586 4.7019 8.3939 7.3125 12.406l77.844 1.2812 44.594-74.469-3.125-5.625z" fill="#fff" filter="url(#s)" opacity=".75" stroke="#000" stroke-width="3.0213"/>
  </g>
  <rect transform="rotate(252.49)" x="-618.48" y="425.4" width="47.376" height="28.991" rx="9.6472" ry="11.364" fill="#1a1a1a" stroke="#000"/>
  <rect transform="rotate(237.85)" x="-683.54" y="253.12" width="19.799" height="25.456" rx="9.6472" ry="7.1213" fill="#1a1a1a" stroke="#000"/>
  <rect transform="rotate(137.71)" x="57.438" y="-414.43" width="27.05" height="32.048" rx="5.4509" ry="10.73" fill="#999" stroke="#000" stroke-width=".60403"/>
  <path transform="matrix(1 0 0 .95818 0 15.698)" d="m280 376.36 201-1 24.515 50-79.957 4 2.2374-26-85.707 0.0884 1.5026 25.912-98.662-4z" fill="url(#af)" filter="url(#z)" stroke="#000" stroke-width="1px"/>
  <rect x="369" y="651.36" width="31" height="108" ry="8" stroke="#000"/>
  <rect transform="matrix(-.67699 .73599 -.60551 -.79584 0 0)" x="14.534" y="-380.24" width="42.198" height="50.242" rx="8.5927" ry="19.694" fill="#1a1a1a" stroke="#000" stroke-width="1.2424"/>
  <rect x="261" y="261.86" width="249" height="90" rx="12.951" ry="21.767" fill="#999" stroke="#000"/>
  <rect transform="matrix(-.79254 -.60982 .44246 -.89679 0 0)" x="-339.94" y="-127.34" width="17.162" height="30.983" rx="8.3623" ry="8.6675" fill="#1a1a1a" stroke="#000" stroke-width="1.0271"/>
  <rect transform="matrix(1 0 0 .93324 0 19.247)" x="261.5" y="261.86" width="249" height="90" rx="12.951" ry="21.767" fill="url(#ah)" filter="url(#ac)" stroke="#000"/>
  <rect x="281" y="275.86" width="202" height="52.5" rx="8.9508" ry="6.3136" fill="#1a1a1a" stroke="#000"/>
  <rect x="330.5" y="282.86" width="5" height="5" rx="0" ry="0" fill="#ff0" stroke="#000" stroke-width=".77152"/>
  <rect x="335.5" y="282.86" width="5" height="5" rx="0" ry="0" fill="#ff0" stroke="#000" stroke-width=".77152"/>
  <rect x="335.5" y="287.86" width="5" height="5" rx="0" ry="0" fill="#ff0" stroke="#000" stroke-width=".77152"/>
  <rect x="330.5" y="287.86" width="5" height="5" rx="0" ry="0" fill="#ff0" stroke="#000" stroke-width=".77152"/>
  <rect x="330.5" y="292.86" width="5" height="5" rx="0" ry="0" fill="#ff0" stroke="#000" stroke-width=".77152"/>
  <rect x="335.5" y="292.86" width="5" height="5" rx="0" ry="0" fill="#ff0" stroke="#000" stroke-width=".77152"/>
  <rect x="340.5" y="287.86" width="5" height="5" rx="0" ry="0" fill="#ff0" stroke="#000" stroke-width=".77152"/>
  <rect x="325.5" y="287.86" width="5" height="5" rx="0" ry="0" fill="#ff0" stroke="#000" stroke-width=".77152"/>
  <rect x="310.5" y="302.86" width="5" height="5" rx="0" ry="0" fill="#ff0" stroke="#000" stroke-width=".77152"/>
  <rect x="315.5" y="302.86" width="5" height="5" rx="0" ry="0" fill="#ff0" stroke="#000" stroke-width=".77152"/>
  <rect x="315.5" y="307.86" width="5" height="5" rx="0" ry="0" fill="#ff0" stroke="#000" stroke-width=".77152"/>
  <rect x="320.5" y="312.86" width="5" height="5" rx="0" ry="0" fill="#ff0" stroke="#000" stroke-width=".77152"/>
  <rect x="315.5" y="297.86" width="5" height="5" rx="0" ry="0" fill="#ff0" stroke="#000" stroke-width=".77152"/>
  <rect x="325.5" y="315.56" width="5" height="5" rx="0" ry="0" fill="#ff0" stroke="#000" stroke-width=".77152"/>
  <rect x="330.5" y="315.56" width="5" height="5" rx="0" ry="0" fill="#ff0" stroke="#000" stroke-width=".77152"/>
  <rect x="340.5" y="315.56" width="5" height="5" rx="0" ry="0" fill="#ff0" stroke="#000" stroke-width=".77152"/>
  <rect x="335.5" y="315.56" width="5" height="5" rx="0" ry="0" fill="#ff0" stroke="#000" stroke-width=".77152"/>
  <rect x="345.5" y="315.56" width="5" height="5" rx="0" ry="0" fill="#ff0" stroke="#000" stroke-width=".77152"/>
  <rect x="350.5" y="315.56" width="5" height="5" rx="0" ry="0" fill="#ff0" stroke="#000" stroke-width=".77152"/>
  <rect x="360.5" y="317.86" width="5" height="5" rx="0" ry="0" fill="#ff0" stroke="#000" stroke-width=".77152"/>
  <rect x="355.5" y="315.56" width="5" height="5" rx="0" ry="0" fill="#ff0" stroke="#000" stroke-width=".77152"/>
  <rect x="365.5" y="317.86" width="5" height="5" rx="0" ry="0" fill="#ff0" stroke="#000" stroke-width=".77152"/>
  <rect x="370.5" y="317.86" width="5" height="5" rx="0" ry="0" fill="#ff0" stroke="#000" stroke-width=".77152"/>
  <rect x="375.5" y="317.86" width="5" height="5" rx="0" ry="0" fill="#ff0" stroke="#000" stroke-width=".77152"/>
  <rect x="380.5" y="317.86" width="5" height="5" rx="0" ry="0" fill="#ff0" stroke="#000" stroke-width=".77152"/>
  <rect x="385.5" y="317.86" width="5" height="5" rx="0" ry="0" fill="#ff0" stroke="#000" stroke-width=".77152"/>
  <rect x="390.5" y="317.86" width="5" height="5" rx="0" ry="0" fill="#ff0" stroke="#000" stroke-width=".77152"/>
  <rect x="395.5" y="317.86" width="5" height="5" rx="0" ry="0" fill="#ff0" stroke="#000" stroke-width=".77152"/>
  <rect x="400.5" y="317.86" width="5" height="5" rx="0" ry="0" fill="#ff0" stroke="#000" stroke-width=".77152"/>
  <rect x="405.5" y="315.56" width="5" height="5" rx="0" ry="0" fill="#ff0" stroke="#000" stroke-width=".77152"/>
  <rect x="410.5" y="315.56" width="5" height="5" rx="0" ry="0" fill="#ff0" stroke="#000" stroke-width=".77152"/>
  <rect x="415.5" y="315.56" width="5" height="5" rx="0" ry="0" fill="#ff0" stroke="#000" stroke-width=".77152"/>
  <rect x="420.5" y="315.56" width="5" height="5" rx="0" ry="0" fill="#ff0" stroke="#000" stroke-width=".77152"/>
  <rect x="425.5" y="315.56" width="5" height="5" rx="0" ry="0" fill="#ff0" stroke="#000" stroke-width=".77152"/>
  <rect x="430.5" y="315.56" width="5" height="5" rx="0" ry="0" fill="#ff0" stroke="#000" stroke-width=".77152"/>
  <rect x="435.5" y="315.56" width="5" height="5" rx="0" ry="0" fill="#ff0" stroke="#000" stroke-width=".77152"/>
  <rect x="440.5" y="312.86" width="5" height="5" rx="0" ry="0" fill="#ff0" stroke="#000" stroke-width=".77152"/>
  <rect x="445.5" y="307.86" width="5" height="5" rx="0" ry="0" fill="#ff0" stroke="#000" stroke-width=".77152"/>
  <rect x="445.5" y="302.86" width="5" height="5" rx="0" ry="0" fill="#ff0" stroke="#000" stroke-width=".77152"/>
  <rect x="450.5" y="302.86" width="5" height="5" rx="0" ry="0" fill="#ff0" stroke="#000" stroke-width=".77152"/>
  <rect x="445.5" y="297.86" width="5" height="5" rx="0" ry="0" fill="#ff0" stroke="#000" stroke-width=".77152"/>
  <rect x="430.5" y="292.86" width="5" height="5" rx="0" ry="0" fill="#ff0" stroke="#000" stroke-width=".77152"/>
  <rect x="425.5" y="292.86" width="5" height="5" rx="0" ry="0" fill="#ff0" stroke="#000" stroke-width=".77152"/>
  <rect x="420.5" y="287.86" width="5" height="5" rx="0" ry="0" fill="#ff0" stroke="#000" stroke-width=".77152"/>
  <rect x="425.5" y="287.86" width="5" height="5" rx="0" ry="0" fill="#ff0" stroke="#000" stroke-width=".77152"/>
  <rect x="430.5" y="287.86" width="5" height="5" rx="0" ry="0" fill="#ff0" stroke="#000" stroke-width=".77152"/>
  <rect x="435.5" y="287.86" width="5" height="5" rx="0" ry="0" fill="#ff0" stroke="#000" stroke-width=".77152"/>
  <rect x="430.5" y="282.86" width="5" height="5" rx="0" ry="0" fill="#ff0" stroke="#000" stroke-width=".77152"/>
  <rect x="425.5" y="282.86" width="5" height="5" rx="0" ry="0" fill="#ff0" stroke="#000" stroke-width=".77152"/>
 </g>
</svg>
